# MagicaVoxel @ Ephtracy

# group
o 

# material
mtllib Porta Elevador.mtl
usemtl palette

# normals
vn -1 0 0
vn 1 0 0
vn 0 0 1
vn 0 0 -1
vn 0 -1 0
vn 0 1 0

# texcoords
vt 0.822266 0.5
vt 0.880859 0.5
vt 0.974609 0.5
vt 0.990234 0.5
vt 0.994141 0.5

# verts
v 3.2 2.7 1.2
v 3.2 2.7 0.9
v 3.2 5.7 1.2
v 3.2 5.7 0.9
v 4.1 5.7 1.2
v 4.1 5.7 0.9
v 4.1 6.1 1.2
v 4.1 6.1 0.9
v 4.7 2.7 1.1
v 4.7 2.7 1
v 4.7 5.4 1.1
v 4.7 5.4 1
v 5.2 5.7 1.2
v 5.2 5.7 1.1
v 5.2 6 1.2
v 5.2 6 1.1
v 5.9 2.7 1.2
v 5.9 2.7 1.1
v 5.9 5.4 1.2
v 5.9 5.4 1.1
v 3.5 2.7 1.2
v 3.5 2.7 1
v 3.5 5.4 1.2
v 3.5 5.4 1.1
v 3.5 5.4 1
v 4.2 5.7 1.2
v 4.2 5.7 1.1
v 4.2 6 1.2
v 4.2 6 1.1
v 5.3 5.7 1.2
v 5.3 5.7 0.9
v 5.3 6.1 1.2
v 5.3 6.1 0.9
v 6.2 2.7 1.2
v 6.2 2.7 0.9
v 6.2 5.7 1.2
v 6.2 5.7 0.9
v 3.2 2.7 1.2
v 3.2 5.7 1.2
v 3.5 2.7 1.2
v 3.5 5.4 1.2
v 4.1 5.7 1.2
v 4.1 6.1 1.2
v 4.2 5.7 1.2
v 4.2 6 1.2
v 5.2 5.7 1.2
v 5.2 6 1.2
v 5.3 5.7 1.2
v 5.3 6.1 1.2
v 5.9 2.7 1.2
v 5.9 5.4 1.2
v 6 3.8 1.2
v 6 4 1.2
v 6.1 3.8 1.2
v 6.1 4 1.2
v 6.2 2.7 1.2
v 6.2 5.7 1.2
v 4.2 5.7 1.1
v 4.2 6 1.1
v 4.6 5.8 1.1
v 4.6 5.9 1.1
v 4.7 2.7 1.1
v 4.7 5.4 1.1
v 4.8 2.7 1.1
v 4.8 5.4 1.1
v 4.8 5.8 1.1
v 4.8 5.9 1.1
v 5.2 5.7 1.1
v 5.2 6 1.1
v 5.9 2.7 1.1
v 5.9 5.4 1.1
v 3.5 2.7 1
v 3.5 5.4 1
v 4.7 2.7 1
v 4.7 5.4 1
v 3.2 2.7 0.9
v 3.2 5.7 0.9
v 3.5 2.7 0.9
v 3.5 5.5 0.9
v 4.1 5.7 0.9
v 4.1 6.1 0.9
v 4.2 5.7 0.9
v 4.2 6 0.9
v 5.2 5.7 0.9
v 5.2 6 0.9
v 5.3 5.7 0.9
v 5.3 6.1 0.9
v 5.9 2.7 0.9
v 5.9 5.5 0.9
v 6.2 2.7 0.9
v 6.2 5.7 0.9
v 3.2 2.7 1.2
v 3.5 2.7 1.2
v 5.9 2.7 1.2
v 6.2 2.7 1.2
v 4.7 2.7 1.1
v 4.8 2.7 1.1
v 5.9 2.7 1.1
v 3.5 2.7 1
v 4.7 2.7 1
v 4.8 2.7 1
v 3.2 2.7 0.9
v 3.5 2.7 0.9
v 5.9 2.7 0.9
v 6.2 2.7 0.9
v 3.5 5.4 1.2
v 5.9 5.4 1.2
v 3.5 5.4 1.1
v 4.7 5.4 1.1
v 4.8 5.4 1.1
v 5.9 5.4 1.1
v 3.5 5.4 1
v 4.7 5.4 1
v 4.2 6 1.2
v 5.2 6 1.2
v 4.2 6 1.1
v 5.2 6 1.1
v 3.2 5.7 1.2
v 4.1 5.7 1.2
v 4.2 5.7 1.2
v 5.2 5.7 1.2
v 5.3 5.7 1.2
v 6.2 5.7 1.2
v 4.2 5.7 1.1
v 5.2 5.7 1.1
v 3.2 5.7 0.9
v 4.1 5.7 0.9
v 5.3 5.7 0.9
v 6.2 5.7 0.9
v 4.1 6.1 1.2
v 5.3 6.1 1.2
v 4.1 6.1 0.9
v 5.3 6.1 0.9

# faces
f 3/4/1 2/4/1 1/4/1
f 4/4/1 2/4/1 3/4/1
f 7/4/1 6/4/1 5/4/1
f 8/4/1 6/4/1 7/4/1
f 11/5/1 10/5/1 9/5/1
f 12/5/1 10/5/1 11/5/1
f 15/4/1 14/4/1 13/4/1
f 16/4/1 14/4/1 15/4/1
f 19/4/1 18/4/1 17/4/1
f 20/4/1 18/4/1 19/4/1
f 21/4/2 22/4/2 23/4/2
f 23/4/2 22/4/2 24/4/2
f 24/4/2 22/4/2 25/4/2
f 26/4/2 27/4/2 28/4/2
f 28/4/2 27/4/2 29/4/2
f 30/4/2 31/4/2 32/4/2
f 32/4/2 31/4/2 33/4/2
f 34/4/2 35/4/2 36/4/2
f 36/4/2 35/4/2 37/4/2
f 40/4/3 39/4/3 38/4/3
f 41/4/3 39/4/3 40/4/3
f 42/4/3 39/4/3 41/4/3
f 44/4/3 42/4/3 41/4/3
f 44/4/3 43/4/3 42/4/3
f 45/4/3 43/4/3 44/4/3
f 46/4/3 44/4/3 41/4/3
f 47/4/3 43/4/3 45/4/3
f 48/4/3 46/4/3 41/4/3
f 48/4/3 47/4/3 46/4/3
f 49/4/3 43/4/3 47/4/3
f 49/4/3 47/4/3 48/4/3
f 51/4/3 48/4/3 41/4/3
f 52/4/3 51/4/3 50/4/3
f 53/4/3 51/4/3 52/4/3
f 54/4/3 52/4/3 50/4/3
f 54/1/3 53/1/3 52/1/3
f 55/4/3 51/4/3 53/4/3
f 55/1/3 53/1/3 54/1/3
f 56/4/3 54/4/3 50/4/3
f 56/4/3 55/4/3 54/4/3
f 57/4/3 48/4/3 51/4/3
f 57/4/3 55/4/3 56/4/3
f 57/4/3 51/4/3 55/4/3
f 60/3/3 59/3/3 58/3/3
f 61/3/3 59/3/3 60/3/3
f 64/5/3 63/5/3 62/5/3
f 65/5/3 63/5/3 64/5/3
f 66/3/3 60/3/3 58/3/3
f 66/2/3 61/2/3 60/2/3
f 67/3/3 59/3/3 61/3/3
f 67/2/3 61/2/3 66/2/3
f 68/3/3 66/3/3 58/3/3
f 68/3/3 67/3/3 66/3/3
f 69/3/3 59/3/3 67/3/3
f 69/3/3 67/3/3 68/3/3
f 70/3/3 65/3/3 64/3/3
f 71/3/3 65/3/3 70/3/3
f 74/3/3 73/3/3 72/3/3
f 75/3/3 73/3/3 74/3/3
f 76/4/4 77/4/4 78/4/4
f 78/4/4 77/4/4 79/4/4
f 79/4/4 77/4/4 80/4/4
f 79/4/4 80/4/4 82/4/4
f 80/4/4 81/4/4 82/4/4
f 82/4/4 81/4/4 83/4/4
f 79/4/4 82/4/4 84/4/4
f 82/3/4 83/3/4 84/3/4
f 83/4/4 81/4/4 85/4/4
f 84/3/4 83/3/4 85/3/4
f 79/4/4 84/4/4 86/4/4
f 84/4/4 85/4/4 86/4/4
f 85/4/4 81/4/4 87/4/4
f 86/4/4 85/4/4 87/4/4
f 78/3/4 79/3/4 88/3/4
f 79/4/4 86/4/4 89/4/4
f 88/3/4 79/3/4 89/3/4
f 88/4/4 89/4/4 90/4/4
f 89/4/4 86/4/4 91/4/4
f 90/4/4 89/4/4 91/4/4
f 98/4/5 95/4/5 94/4/5
f 99/4/5 93/4/5 92/4/5
f 100/5/5 97/5/5 96/5/5
f 101/3/5 98/3/5 97/3/5
f 101/5/5 97/5/5 100/5/5
f 102/4/5 99/4/5 92/4/5
f 103/3/5 100/3/5 99/3/5
f 103/4/5 99/4/5 102/4/5
f 103/3/5 101/3/5 100/3/5
f 104/3/5 98/3/5 101/3/5
f 104/3/5 101/3/5 103/3/5
f 104/4/5 95/4/5 98/4/5
f 105/4/5 95/4/5 104/4/5
f 108/4/5 107/4/5 106/4/5
f 109/4/5 107/4/5 108/4/5
f 110/4/5 107/4/5 109/4/5
f 111/4/5 107/4/5 110/4/5
f 112/3/5 109/3/5 108/3/5
f 113/3/5 109/3/5 112/3/5
f 116/4/5 115/4/5 114/4/5
f 117/4/5 115/4/5 116/4/5
f 120/4/6 121/4/6 124/4/6
f 124/4/6 121/4/6 125/4/6
f 118/4/6 119/4/6 126/4/6
f 126/4/6 119/4/6 127/4/6
f 122/4/6 123/4/6 128/4/6
f 128/4/6 123/4/6 129/4/6
f 130/4/6 131/4/6 132/4/6
f 132/4/6 131/4/6 133/4/6
