# MagicaVoxel @ Ephtracy

# group
o 

# material
mtllib EsteiraNova.mtl
usemtl palette

# normals
vn -1 0 0
vn 1 0 0
vn 0 0 1
vn 0 0 -1
vn 0 -1 0
vn 0 1 0

# texcoords
vt 0.912109 0.5
vt 0.982422 0.5
vt 0.990234 0.5

# verts
v 0 2 0
v 0 2 -0.1
v 0 2 -0.3
v 0 2 -0.4
v 0 2 -2.6
v 0 2 -2.7
v 0 2 -2.9
v 0 2 -3
v 0 2.1 0
v 0 2.1 -0.1
v 0 2.1 -0.3
v 0 2.1 -0.4
v 0 2.1 -2.6
v 0 2.1 -2.7
v 0 2.1 -2.9
v 0 2.1 -3
v 3.2 2 0
v 3.2 2 -0.1
v 3.2 2 -0.3
v 3.2 2 -0.4
v 3.2 2 -2.6
v 3.2 2 -2.7
v 3.2 2 -2.9
v 3.2 2 -3
v 3.2 2.1 0
v 3.2 2.1 -0.1
v 3.2 2.1 -0.3
v 3.2 2.1 -0.4
v 3.2 2.1 -2.6
v 3.2 2.1 -2.7
v 3.2 2.1 -2.9
v 3.2 2.1 -3
v 0 2 0
v 0 2.1 0
v 3.2 2 0
v 3.2 2.1 0
v 0 2 -3
v 0 2.1 -3
v 3.2 2 -3
v 3.2 2.1 -3
v 0 2 0
v 3.2 2 0
v 0 2 -0.1
v 3.2 2 -0.1
v 0 2 -0.3
v 3.2 2 -0.3
v 0 2 -0.4
v 3.2 2 -0.4
v 0 2 -2.6
v 3.2 2 -2.6
v 0 2 -2.7
v 3.2 2 -2.7
v 0 2 -2.9
v 3.2 2 -2.9
v 0 2 -3
v 3.2 2 -3
v 0 2.1 0
v 3.2 2.1 0
v 0 2.1 -0.1
v 3.2 2.1 -0.1
v 0 2.1 -0.3
v 3.2 2.1 -0.3
v 0 2.1 -0.4
v 3.2 2.1 -0.4
v 0 2.1 -2.6
v 3.2 2.1 -2.6
v 0 2.1 -2.7
v 3.2 2.1 -2.7
v 0 2.1 -2.9
v 3.2 2.1 -2.9
v 0 2.1 -3
v 3.2 2.1 -3

# faces
f 9/3/1 2/3/1 1/3/1
f 10/1/1 3/1/1 2/1/1
f 10/3/1 2/3/1 9/3/1
f 11/3/1 4/3/1 3/3/1
f 11/1/1 3/1/1 10/1/1
f 12/2/1 5/2/1 4/2/1
f 12/3/1 4/3/1 11/3/1
f 13/3/1 6/3/1 5/3/1
f 13/2/1 5/2/1 12/2/1
f 14/1/1 7/1/1 6/1/1
f 14/3/1 6/3/1 13/3/1
f 15/3/1 8/3/1 7/3/1
f 15/1/1 7/1/1 14/1/1
f 16/3/1 8/3/1 15/3/1
f 17/3/2 18/3/2 25/3/2
f 18/1/2 19/1/2 26/1/2
f 25/3/2 18/3/2 26/3/2
f 19/3/2 20/3/2 27/3/2
f 26/1/2 19/1/2 27/1/2
f 20/2/2 21/2/2 28/2/2
f 27/3/2 20/3/2 28/3/2
f 21/3/2 22/3/2 29/3/2
f 28/2/2 21/2/2 29/2/2
f 22/1/2 23/1/2 30/1/2
f 29/3/2 22/3/2 30/3/2
f 23/3/2 24/3/2 31/3/2
f 30/1/2 23/1/2 31/1/2
f 31/3/2 24/3/2 32/3/2
f 35/3/3 34/3/3 33/3/3
f 36/3/3 34/3/3 35/3/3
f 37/3/4 38/3/4 39/3/4
f 39/3/4 38/3/4 40/3/4
f 43/3/5 42/3/5 41/3/5
f 44/3/5 42/3/5 43/3/5
f 45/1/5 44/1/5 43/1/5
f 46/1/5 44/1/5 45/1/5
f 47/3/5 46/3/5 45/3/5
f 48/3/5 46/3/5 47/3/5
f 49/2/5 48/2/5 47/2/5
f 50/2/5 48/2/5 49/2/5
f 51/3/5 50/3/5 49/3/5
f 52/3/5 50/3/5 51/3/5
f 53/1/5 52/1/5 51/1/5
f 54/1/5 52/1/5 53/1/5
f 55/3/5 54/3/5 53/3/5
f 56/3/5 54/3/5 55/3/5
f 57/3/6 58/3/6 59/3/6
f 59/3/6 58/3/6 60/3/6
f 59/1/6 60/1/6 61/1/6
f 61/1/6 60/1/6 62/1/6
f 61/3/6 62/3/6 63/3/6
f 63/3/6 62/3/6 64/3/6
f 63/2/6 64/2/6 65/2/6
f 65/2/6 64/2/6 66/2/6
f 65/3/6 66/3/6 67/3/6
f 67/3/6 66/3/6 68/3/6
f 67/1/6 68/1/6 69/1/6
f 69/1/6 68/1/6 70/1/6
f 69/3/6 70/3/6 71/3/6
f 71/3/6 70/3/6 72/3/6
