# MagicaVoxel @ Ephtracy

# group
o 

# material
mtllib PlacaPressao-ON.mtl
usemtl palette

# normals
vn -1 0 0
vn 1 0 0
vn 0 0 1
vn 0 0 -1
vn 0 -1 0
vn 0 1 0

# texcoords
vt 0.876953 0.5
vt 0.884766 0.5
vt 0.947266 0.5
vt 0.951172 0.5
vt 0.955078 0.5
vt 0.970703 0.5

# verts
v 0 2 0
v 0 2 -1.6
v 0 2.1 0
v 0 2.1 -1.6
v 0.3 2.1 -0.3
v 0.3 2.1 -1.3
v 0.3 2.3 -0.3
v 0.3 2.3 -1.3
v 0.3 2.4 -0.3
v 0.3 2.4 -1.3
v 0.3 2.5 -0.3
v 0.3 2.5 -1.3
v 0.3 2.6 -0.7
v 0.3 2.6 -0.8
v 0.3 2.7 -0.8
v 0.3 2.7 -0.9
v 0.3 3 -0.3
v 0.3 3 -0.7
v 0.3 3 -0.9
v 0.3 3 -1.3
v 1.3 2.1 -0.4
v 1.3 2.1 -1.2
v 1.3 2.3 -0.4
v 1.3 2.3 -1.2
v 1.3 2.4 -0.4
v 1.3 2.4 -1.2
v 1.3 2.5 -0.4
v 1.3 2.5 -1.2
v 1.3 2.6 -0.4
v 1.3 2.6 -0.8
v 1.3 2.6 -0.9
v 1.3 2.7 -0.7
v 1.3 2.7 -0.8
v 1.3 2.8 -0.4
v 1.3 2.8 -0.7
v 1.3 2.8 -0.9
v 1.3 2.8 -1.2
v 0.4 2.1 -0.4
v 0.4 2.1 -1.2
v 0.4 2.3 -0.4
v 0.4 2.3 -1.2
v 0.4 2.4 -0.4
v 0.4 2.4 -1.2
v 0.4 2.5 -0.4
v 0.4 2.5 -1.2
v 0.4 2.6 -0.7
v 0.4 2.6 -0.8
v 0.4 2.7 -0.8
v 0.4 2.7 -0.9
v 0.4 2.8 -0.4
v 0.4 2.8 -0.7
v 0.4 2.8 -0.9
v 0.4 2.8 -1.2
v 1.4 2.1 -0.3
v 1.4 2.1 -1.3
v 1.4 2.3 -0.3
v 1.4 2.3 -1.3
v 1.4 2.4 -0.3
v 1.4 2.4 -1.3
v 1.4 2.5 -0.3
v 1.4 2.5 -1.3
v 1.4 2.6 -0.8
v 1.4 2.6 -0.9
v 1.4 2.7 -0.7
v 1.4 2.7 -0.8
v 1.4 3 -0.3
v 1.4 3 -0.7
v 1.4 3 -0.9
v 1.4 3 -1.3
v 1.7 2 0
v 1.7 2 -1.6
v 1.7 2.1 0
v 1.7 2.1 -1.6
v 0 2 0
v 0 2.1 0
v 1.7 2 0
v 1.7 2.1 0
v 0.3 2.1 -0.3
v 0.3 2.3 -0.3
v 0.3 2.4 -0.3
v 0.3 2.5 -0.3
v 0.3 3 -0.3
v 1 2.6 -0.3
v 1 2.8 -0.3
v 1.3 2.6 -0.3
v 1.3 2.8 -0.3
v 1.4 2.1 -0.3
v 1.4 2.3 -0.3
v 1.4 2.4 -0.3
v 1.4 2.5 -0.3
v 1.4 3 -0.3
v 0.4 2.1 -1.2
v 0.4 2.3 -1.2
v 0.4 2.4 -1.2
v 0.4 2.5 -1.2
v 0.4 2.8 -1.2
v 1.3 2.1 -1.2
v 1.3 2.3 -1.2
v 1.3 2.4 -1.2
v 1.3 2.5 -1.2
v 1.3 2.8 -1.2
v 0.4 2.1 -0.4
v 0.4 2.3 -0.4
v 0.4 2.4 -0.4
v 0.4 2.5 -0.4
v 0.4 2.8 -0.4
v 1 2.6 -0.4
v 1 2.8 -0.4
v 1.3 2.1 -0.4
v 1.3 2.3 -0.4
v 1.3 2.4 -0.4
v 1.3 2.5 -0.4
v 1.3 2.6 -0.4
v 1.3 2.8 -0.4
v 0.3 2.1 -1.3
v 0.3 2.3 -1.3
v 0.3 2.4 -1.3
v 0.3 2.5 -1.3
v 0.3 3 -1.3
v 1.4 2.1 -1.3
v 1.4 2.3 -1.3
v 1.4 2.4 -1.3
v 1.4 2.5 -1.3
v 1.4 3 -1.3
v 0 2 -1.6
v 0 2.1 -1.6
v 1.7 2 -1.6
v 1.7 2.1 -1.6
v 0 2 0
v 1.7 2 0
v 0.1 2 -0.1
v 1.6 2 -0.1
v 0.2 2 -0.2
v 1.5 2 -0.2
v 0.3 2 -0.3
v 1.4 2 -0.3
v 0.4 2 -0.4
v 1.3 2 -0.4
v 0.5 2 -0.5
v 1.2 2 -0.5
v 0.5 2 -1.1
v 1.2 2 -1.1
v 0.4 2 -1.2
v 1.3 2 -1.2
v 0.3 2 -1.3
v 1.4 2 -1.3
v 0.2 2 -1.4
v 1.5 2 -1.4
v 0.1 2 -1.5
v 1.6 2 -1.5
v 0 2 -1.6
v 1.7 2 -1.6
v 0.4 2.8 -0.4
v 1 2.8 -0.4
v 1.3 2.8 -0.4
v 0.4 2.8 -0.7
v 1.3 2.8 -0.7
v 0.4 2.8 -0.9
v 1.3 2.8 -0.9
v 0.4 2.8 -1.2
v 1.3 2.8 -1.2
v 0 2.1 0
v 1.7 2.1 0
v 0.1 2.1 -0.1
v 1.6 2.1 -0.1
v 0.2 2.1 -0.2
v 1.5 2.1 -0.2
v 0.3 2.1 -0.3
v 1.4 2.1 -0.3
v 0.4 2.1 -0.4
v 1.3 2.1 -0.4
v 0.5 2.1 -0.5
v 1.2 2.1 -0.5
v 0.5 2.1 -1.1
v 1.2 2.1 -1.1
v 0.4 2.1 -1.2
v 1.3 2.1 -1.2
v 0.3 2.1 -1.3
v 1.4 2.1 -1.3
v 0.2 2.1 -1.4
v 1.5 2.1 -1.4
v 0.1 2.1 -1.5
v 1.6 2.1 -1.5
v 0 2.1 -1.6
v 1.7 2.1 -1.6
v 0.3 3 -0.3
v 1.4 3 -0.3
v 0.3 3 -0.7
v 1.4 3 -0.7
v 0.3 3 -0.9
v 1.4 3 -0.9
v 0.3 3 -1.3
v 1.4 3 -1.3

# faces
f 3/1/1 2/1/1 1/1/1
f 4/1/1 2/1/1 3/1/1
f 7/4/1 6/4/1 5/4/1
f 8/4/1 6/4/1 7/4/1
f 9/5/1 8/5/1 7/5/1
f 10/5/1 8/5/1 9/5/1
f 11/4/1 10/4/1 9/4/1
f 12/4/1 10/4/1 11/4/1
f 13/5/1 12/5/1 11/5/1
f 14/5/1 12/5/1 13/5/1
f 15/3/1 14/3/1 13/3/1
f 15/5/1 12/5/1 14/5/1
f 16/5/1 12/5/1 15/5/1
f 17/5/1 13/5/1 11/5/1
f 18/3/1 15/3/1 13/3/1
f 18/5/1 13/5/1 17/5/1
f 18/3/1 16/3/1 15/3/1
f 19/5/1 12/5/1 16/5/1
f 19/3/1 16/3/1 18/3/1
f 20/5/1 12/5/1 19/5/1
f 23/4/1 22/4/1 21/4/1
f 24/4/1 22/4/1 23/4/1
f 25/5/1 24/5/1 23/5/1
f 26/5/1 24/5/1 25/5/1
f 27/4/1 26/4/1 25/4/1
f 28/4/1 26/4/1 27/4/1
f 29/5/1 28/5/1 27/5/1
f 30/5/1 28/5/1 29/5/1
f 31/5/1 28/5/1 30/5/1
f 32/5/1 30/5/1 29/5/1
f 33/3/1 31/3/1 30/3/1
f 33/5/1 30/5/1 32/5/1
f 34/5/1 32/5/1 29/5/1
f 35/3/1 33/3/1 32/3/1
f 35/5/1 32/5/1 34/5/1
f 36/5/1 28/5/1 31/5/1
f 36/3/1 33/3/1 35/3/1
f 36/3/1 31/3/1 33/3/1
f 37/5/1 28/5/1 36/5/1
f 38/4/2 39/4/2 40/4/2
f 40/4/2 39/4/2 41/4/2
f 40/5/2 41/5/2 42/5/2
f 42/5/2 41/5/2 43/5/2
f 42/4/2 43/4/2 44/4/2
f 44/4/2 43/4/2 45/4/2
f 44/5/2 45/5/2 46/5/2
f 46/5/2 45/5/2 47/5/2
f 46/3/2 47/3/2 48/3/2
f 47/5/2 45/5/2 48/5/2
f 48/5/2 45/5/2 49/5/2
f 44/5/2 46/5/2 50/5/2
f 46/3/2 48/3/2 51/3/2
f 50/5/2 46/5/2 51/5/2
f 48/3/2 49/3/2 51/3/2
f 49/5/2 45/5/2 52/5/2
f 51/3/2 49/3/2 52/3/2
f 52/5/2 45/5/2 53/5/2
f 54/4/2 55/4/2 56/4/2
f 56/4/2 55/4/2 57/4/2
f 56/5/2 57/5/2 58/5/2
f 58/5/2 57/5/2 59/5/2
f 58/4/2 59/4/2 60/4/2
f 60/4/2 59/4/2 61/4/2
f 60/5/2 61/5/2 62/5/2
f 62/5/2 61/5/2 63/5/2
f 60/5/2 62/5/2 64/5/2
f 62/3/2 63/3/2 65/3/2
f 64/5/2 62/5/2 65/5/2
f 60/5/2 64/5/2 66/5/2
f 64/3/2 65/3/2 67/3/2
f 66/5/2 64/5/2 67/5/2
f 63/5/2 61/5/2 68/5/2
f 67/3/2 65/3/2 68/3/2
f 65/3/2 63/3/2 68/3/2
f 68/5/2 61/5/2 69/5/2
f 70/1/2 71/1/2 72/1/2
f 72/1/2 71/1/2 73/1/2
f 76/1/3 75/1/3 74/1/3
f 77/1/3 75/1/3 76/1/3
f 83/5/3 82/5/3 81/5/3
f 84/5/3 82/5/3 83/5/3
f 85/5/3 83/5/3 81/5/3
f 85/6/3 84/6/3 83/6/3
f 86/5/3 82/5/3 84/5/3
f 86/6/3 84/6/3 85/6/3
f 87/4/3 79/4/3 78/4/3
f 88/5/3 80/5/3 79/5/3
f 88/4/3 79/4/3 87/4/3
f 89/4/3 81/4/3 80/4/3
f 89/5/3 80/5/3 88/5/3
f 90/5/3 85/5/3 81/5/3
f 90/4/3 81/4/3 89/4/3
f 90/5/3 86/5/3 85/5/3
f 91/5/3 82/5/3 86/5/3
f 91/5/3 86/5/3 90/5/3
f 97/4/3 93/4/3 92/4/3
f 98/5/3 94/5/3 93/5/3
f 98/4/3 93/4/3 97/4/3
f 99/4/3 95/4/3 94/4/3
f 99/5/3 94/5/3 98/5/3
f 100/5/3 96/5/3 95/5/3
f 100/4/3 95/4/3 99/4/3
f 101/5/3 96/5/3 100/5/3
f 105/5/4 106/5/4 107/5/4
f 107/5/4 106/5/4 108/5/4
f 102/4/4 103/4/4 109/4/4
f 103/5/4 104/5/4 110/5/4
f 109/4/4 103/4/4 110/4/4
f 104/4/4 105/4/4 111/4/4
f 110/5/4 104/5/4 111/5/4
f 105/5/4 107/5/4 112/5/4
f 111/4/4 105/4/4 112/4/4
f 107/6/4 108/6/4 113/6/4
f 112/5/4 107/5/4 113/5/4
f 113/6/4 108/6/4 114/6/4
f 115/4/4 116/4/4 120/4/4
f 116/5/4 117/5/4 121/5/4
f 120/4/4 116/4/4 121/4/4
f 117/4/4 118/4/4 122/4/4
f 121/5/4 117/5/4 122/5/4
f 118/5/4 119/5/4 123/5/4
f 122/4/4 118/4/4 123/4/4
f 123/5/4 119/5/4 124/5/4
f 125/1/4 126/1/4 127/1/4
f 127/1/4 126/1/4 128/1/4
f 131/1/5 130/1/5 129/1/5
f 132/1/5 130/1/5 131/1/5
f 133/2/5 132/2/5 131/2/5
f 134/2/5 132/2/5 133/2/5
f 135/1/5 134/1/5 133/1/5
f 136/1/5 134/1/5 135/1/5
f 137/2/5 136/2/5 135/2/5
f 138/2/5 136/2/5 137/2/5
f 139/1/5 138/1/5 137/1/5
f 140/1/5 138/1/5 139/1/5
f 141/1/5 139/1/5 137/1/5
f 141/2/5 140/2/5 139/2/5
f 142/1/5 138/1/5 140/1/5
f 142/2/5 140/2/5 141/2/5
f 143/2/5 137/2/5 135/2/5
f 143/1/5 141/1/5 137/1/5
f 143/1/5 142/1/5 141/1/5
f 144/1/5 138/1/5 142/1/5
f 144/1/5 142/1/5 143/1/5
f 144/2/5 136/2/5 138/2/5
f 145/1/5 135/1/5 133/1/5
f 145/2/5 143/2/5 135/2/5
f 145/2/5 144/2/5 143/2/5
f 146/2/5 136/2/5 144/2/5
f 146/2/5 144/2/5 145/2/5
f 146/1/5 134/1/5 136/1/5
f 147/2/5 133/2/5 131/2/5
f 147/1/5 145/1/5 133/1/5
f 147/1/5 146/1/5 145/1/5
f 148/1/5 134/1/5 146/1/5
f 148/1/5 146/1/5 147/1/5
f 148/2/5 132/2/5 134/2/5
f 149/1/5 131/1/5 129/1/5
f 149/2/5 147/2/5 131/2/5
f 149/2/5 148/2/5 147/2/5
f 150/2/5 132/2/5 148/2/5
f 150/2/5 148/2/5 149/2/5
f 150/1/5 130/1/5 132/1/5
f 151/1/5 149/1/5 129/1/5
f 151/1/5 150/1/5 149/1/5
f 152/1/5 130/1/5 150/1/5
f 152/1/5 150/1/5 151/1/5
f 156/5/5 154/5/5 153/5/5
f 156/5/5 155/5/5 154/5/5
f 157/5/5 155/5/5 156/5/5
f 158/5/5 157/5/5 156/5/5
f 159/5/5 157/5/5 158/5/5
f 160/5/5 159/5/5 158/5/5
f 161/5/5 159/5/5 160/5/5
f 162/1/6 163/1/6 164/1/6
f 164/1/6 163/1/6 165/1/6
f 164/2/6 165/2/6 166/2/6
f 166/2/6 165/2/6 167/2/6
f 166/1/6 167/1/6 168/1/6
f 168/1/6 167/1/6 169/1/6
f 170/1/6 171/1/6 172/1/6
f 172/1/6 171/1/6 173/1/6
f 170/1/6 172/1/6 174/1/6
f 172/2/6 173/2/6 174/2/6
f 173/1/6 171/1/6 175/1/6
f 174/2/6 173/2/6 175/2/6
f 170/1/6 174/1/6 176/1/6
f 174/1/6 175/1/6 176/1/6
f 175/1/6 171/1/6 177/1/6
f 176/1/6 175/1/6 177/1/6
f 166/1/6 168/1/6 178/1/6
f 169/1/6 167/1/6 179/1/6
f 164/2/6 166/2/6 180/2/6
f 178/1/6 179/1/6 180/1/6
f 166/1/6 178/1/6 180/1/6
f 179/1/6 167/1/6 181/1/6
f 180/1/6 179/1/6 181/1/6
f 167/2/6 165/2/6 181/2/6
f 162/1/6 164/1/6 182/1/6
f 164/2/6 180/2/6 182/2/6
f 180/2/6 181/2/6 182/2/6
f 181/2/6 165/2/6 183/2/6
f 182/2/6 181/2/6 183/2/6
f 165/1/6 163/1/6 183/1/6
f 162/1/6 182/1/6 184/1/6
f 182/1/6 183/1/6 184/1/6
f 183/1/6 163/1/6 185/1/6
f 184/1/6 183/1/6 185/1/6
f 186/5/6 187/5/6 188/5/6
f 188/5/6 187/5/6 189/5/6
f 188/3/6 189/3/6 190/3/6
f 190/3/6 189/3/6 191/3/6
f 190/5/6 191/5/6 192/5/6
f 192/5/6 191/5/6 193/5/6
